<mxfile host="Electron" modified="2023-06-23T18:09:00.938Z" agent="Mozilla/5.0 (Windows NT 10.0; Win64; x64) AppleWebKit/537.36 (KHTML, like Gecko) draw.io/21.2.8 Chrome/112.0.5615.165 Electron/24.2.0 Safari/537.36" etag="tfylr8oB6oFuP_MedT-Z" version="21.2.8" type="device">
  <diagram name="Page-1" id="W9xMwAUbrN82zW6BPox3">
    <mxGraphModel dx="1195" dy="697" grid="1" gridSize="10" guides="1" tooltips="1" connect="1" arrows="1" fold="1" page="1" pageScale="1" pageWidth="850" pageHeight="1100" math="0" shadow="0">
      <root>
        <mxCell id="0" />
        <mxCell id="1" parent="0" />
        <mxCell id="5L15_L-fKl23Sdav9iab-29" value="" style="group" vertex="1" connectable="0" parent="1">
          <mxGeometry x="120" y="160" width="40" height="200" as="geometry" />
        </mxCell>
        <mxCell id="5L15_L-fKl23Sdav9iab-30" value="&lt;b&gt;·&amp;nbsp;·&amp;nbsp;·&lt;/b&gt;" style="rounded=0;whiteSpace=wrap;html=1;fillColor=#dae8fc;strokeColor=#6c8ebf;horizontal=0;" vertex="1" parent="5L15_L-fKl23Sdav9iab-29">
          <mxGeometry width="40" height="200" as="geometry" />
        </mxCell>
        <mxCell id="5L15_L-fKl23Sdav9iab-31" value="" style="verticalLabelPosition=bottom;shadow=0;dashed=0;align=center;html=1;verticalAlign=top;shape=mxgraph.electrical.radio.aerial_-_antenna_2;" vertex="1" parent="5L15_L-fKl23Sdav9iab-29">
          <mxGeometry x="10" y="10" width="20" height="30" as="geometry" />
        </mxCell>
        <mxCell id="5L15_L-fKl23Sdav9iab-32" value="" style="verticalLabelPosition=bottom;shadow=0;dashed=0;align=center;html=1;verticalAlign=top;shape=mxgraph.electrical.radio.aerial_-_antenna_2;" vertex="1" parent="5L15_L-fKl23Sdav9iab-29">
          <mxGeometry x="10" y="50" width="20" height="30" as="geometry" />
        </mxCell>
        <mxCell id="5L15_L-fKl23Sdav9iab-33" value="" style="verticalLabelPosition=bottom;shadow=0;dashed=0;align=center;html=1;verticalAlign=top;shape=mxgraph.electrical.radio.aerial_-_antenna_2;" vertex="1" parent="5L15_L-fKl23Sdav9iab-29">
          <mxGeometry x="10" y="160" width="20" height="30" as="geometry" />
        </mxCell>
        <mxCell id="5L15_L-fKl23Sdav9iab-34" value="" style="verticalLabelPosition=bottom;shadow=0;dashed=0;align=center;html=1;verticalAlign=top;shape=mxgraph.electrical.radio.aerial_-_antenna_2;" vertex="1" parent="5L15_L-fKl23Sdav9iab-29">
          <mxGeometry x="10" y="120" width="20" height="30" as="geometry" />
        </mxCell>
        <mxCell id="5L15_L-fKl23Sdav9iab-35" value="&lt;font color=&quot;#000000&quot;&gt;Transmitting&lt;br&gt;Transducers&lt;br&gt;&lt;/font&gt;" style="text;html=1;strokeColor=none;fillColor=none;align=center;verticalAlign=middle;whiteSpace=wrap;rounded=0;fontSize=16;fontColor=#ffb570;" vertex="1" parent="1">
          <mxGeometry x="20" y="245" width="100" height="30" as="geometry" />
        </mxCell>
        <mxCell id="5L15_L-fKl23Sdav9iab-36" value="&lt;font color=&quot;#000000&quot;&gt;Receiving&lt;br&gt;Transducers&lt;br&gt;&lt;/font&gt;" style="text;html=1;strokeColor=none;fillColor=none;align=center;verticalAlign=middle;whiteSpace=wrap;rounded=0;fontSize=16;fontColor=#ffb570;" vertex="1" parent="1">
          <mxGeometry x="250" y="450" width="100" height="30" as="geometry" />
        </mxCell>
        <mxCell id="5L15_L-fKl23Sdav9iab-37" value="&lt;b&gt;·&amp;nbsp;·&amp;nbsp;·&lt;/b&gt;" style="rounded=0;whiteSpace=wrap;html=1;fillColor=#d5e8d4;strokeColor=#82b366;horizontal=0;rotation=-90;" vertex="1" parent="1">
          <mxGeometry x="280" y="320" width="40" height="200" as="geometry" />
        </mxCell>
        <mxCell id="5L15_L-fKl23Sdav9iab-38" value="" style="verticalLabelPosition=bottom;shadow=0;dashed=0;align=center;html=1;verticalAlign=top;shape=mxgraph.electrical.radio.aerial_-_antenna_2;rotation=0;" vertex="1" parent="1">
          <mxGeometry x="215" y="405" width="20" height="30" as="geometry" />
        </mxCell>
        <mxCell id="5L15_L-fKl23Sdav9iab-39" value="" style="verticalLabelPosition=bottom;shadow=0;dashed=0;align=center;html=1;verticalAlign=top;shape=mxgraph.electrical.radio.aerial_-_antenna_2;rotation=0;" vertex="1" parent="1">
          <mxGeometry x="255" y="405" width="20" height="30" as="geometry" />
        </mxCell>
        <mxCell id="5L15_L-fKl23Sdav9iab-40" value="" style="verticalLabelPosition=bottom;shadow=0;dashed=0;align=center;html=1;verticalAlign=top;shape=mxgraph.electrical.radio.aerial_-_antenna_2;rotation=0;" vertex="1" parent="1">
          <mxGeometry x="365" y="405" width="20" height="30" as="geometry" />
        </mxCell>
        <mxCell id="5L15_L-fKl23Sdav9iab-41" value="" style="verticalLabelPosition=bottom;shadow=0;dashed=0;align=center;html=1;verticalAlign=top;shape=mxgraph.electrical.radio.aerial_-_antenna_2;rotation=0;" vertex="1" parent="1">
          <mxGeometry x="325" y="405" width="20" height="30" as="geometry" />
        </mxCell>
        <mxCell id="5L15_L-fKl23Sdav9iab-42" value="" style="ellipse;whiteSpace=wrap;html=1;aspect=fixed;fillColor=#f0a30a;strokeColor=#000000;fontColor=#000000;" vertex="1" parent="1">
          <mxGeometry x="358" y="255" width="10" height="10" as="geometry" />
        </mxCell>
        <mxCell id="5L15_L-fKl23Sdav9iab-44" value="" style="ellipse;whiteSpace=wrap;html=1;aspect=fixed;fillColor=#f0a30a;strokeColor=#000000;fontColor=#000000;" vertex="1" parent="1">
          <mxGeometry x="244" y="196" width="10" height="10" as="geometry" />
        </mxCell>
        <mxCell id="5L15_L-fKl23Sdav9iab-45" value="" style="ellipse;whiteSpace=wrap;html=1;aspect=fixed;fillColor=#f0a30a;strokeColor=#000000;fontColor=#000000;" vertex="1" parent="1">
          <mxGeometry x="282" y="294" width="10" height="10" as="geometry" />
        </mxCell>
        <mxCell id="5L15_L-fKl23Sdav9iab-51" style="rounded=0;orthogonalLoop=1;jettySize=auto;html=1;exitX=0;exitY=0.75;exitDx=0;exitDy=0;" edge="1" parent="1" source="5L15_L-fKl23Sdav9iab-50">
          <mxGeometry relative="1" as="geometry">
            <mxPoint x="260" y="200" as="targetPoint" />
          </mxGeometry>
        </mxCell>
        <mxCell id="5L15_L-fKl23Sdav9iab-53" style="rounded=0;orthogonalLoop=1;jettySize=auto;html=1;exitX=0.5;exitY=1;exitDx=0;exitDy=0;" edge="1" parent="1" source="5L15_L-fKl23Sdav9iab-50">
          <mxGeometry relative="1" as="geometry">
            <mxPoint x="290" y="290" as="targetPoint" />
          </mxGeometry>
        </mxCell>
        <mxCell id="5L15_L-fKl23Sdav9iab-50" value="&lt;font style=&quot;font-size: 16px;&quot;&gt;Scatterers&lt;/font&gt;" style="text;html=1;strokeColor=none;fillColor=none;align=center;verticalAlign=middle;whiteSpace=wrap;rounded=0;" vertex="1" parent="1">
          <mxGeometry x="292" y="170" width="82" height="26" as="geometry" />
        </mxCell>
        <mxCell id="5L15_L-fKl23Sdav9iab-52" style="rounded=0;orthogonalLoop=1;jettySize=auto;html=1;exitX=0.75;exitY=1;exitDx=0;exitDy=0;" edge="1" parent="1" source="5L15_L-fKl23Sdav9iab-50">
          <mxGeometry relative="1" as="geometry">
            <mxPoint x="360" y="250" as="targetPoint" />
            <mxPoint x="310" y="205" as="sourcePoint" />
          </mxGeometry>
        </mxCell>
      </root>
    </mxGraphModel>
  </diagram>
</mxfile>
